# xmcd
#
# Track frame offsets: 
#        150
#        19331
#        28872
#        49383
#        70853
#        87845
#        103421
#        119575
#        132372
#        150435
#        166607
#        184901
#        205645
#        218002
#
# Disc length: 3119 seconds
#
# Revision: 3
# Processed by: cddbd v1.5.2PL0 Copyright (c) Steve Scherf et al.
# Submitted via: ExactAudioCopyFreeDBPlugin 1.0
#
DISCID=c30c2d0e
DTITLE=The Football Squad - Footballhits 2000
DYEAR=2000
DGENRE=Pop
TTITLE0=The Final Conntdown
TTITLE1=We will rock you
TTITLE2=La copa da la vida
TTITLE3=Go west
TTITLE4=Can't take my eyes off you
TTITLE5=I will survive
TTITLE6=Three Lions
TTITLE7=Rockin' all over the world
TTITLE8=Live is life
TTITLE9=You win again
TTITLE10=The best
TTITLE11=The winner takes it all
TTITLE12=You'll never walk alone
TTITLE13=We are the champions
EXTD=
EXTT0=
EXTT1=
EXTT2=
EXTT3=
EXTT4=
EXTT5=
EXTT6=
EXTT7=
EXTT8=
EXTT9=
EXTT10=
EXTT11=
EXTT12=
EXTT13=
PLAYORDER=
